<svg width="597" height="559" viewBox="0 0 597 559" fill="none" xmlns="http://www.w3.org/2000/svg">
<g clip-path="url(#clip0)">
<path d="M533.334 179.835C463.974 108.01 349.111 106.005 277.287 175.365C188.151 261.443 169.863 504.379 169.128 514.68C168.438 524.355 176.307 532.485 185.983 532.133C196.303 531.759 439.73 521.96 528.866 435.883C600.689 366.521 602.694 251.659 533.334 179.835ZM337.54 368.912C302.643 332.775 303.652 274.985 339.789 240.088C375.926 205.191 433.716 206.2 468.612 242.337C503.509 278.473 502.499 336.262 466.362 371.159C430.225 406.057 372.436 405.048 337.54 368.912Z" fill="#40BF00" fill-opacity="0.5"/>
</g>
<defs>
<clipPath id="clip0">
<rect width="500" height="500" fill="white" transform="translate(359.67) rotate(46)"/>
</clipPath>
</defs>
</svg>
